<?xml version="1.0" encoding="utf-8"?>
<!-- Generator: Adobe Illustrator 16.0.0, SVG Export Plug-In . SVG Version: 6.00 Build 0)  -->
<!DOCTYPE svg PUBLIC "-//W3C//DTD SVG 1.1//EN" "http://www.w3.org/Graphics/SVG/1.1/DTD/svg11.dtd">
<svg version="1.1" id="Layer_1" xmlns="http://www.w3.org/2000/svg" xmlns:xlink="http://www.w3.org/1999/xlink" x="0px" y="0px"
	 width="135px" height="135px" viewBox="0 0 135 135" style="enable-background:new 0 0 135 135;" xml:space="preserve">
<style type="text/css">
<![CDATA[
	.st0{fill:#465652;}
	.st1{fill:#AAB9BA;}
	.st2{fill:#47C67B;}
	.st3{fill:#AAC8D1;}
	.st4{fill:none;stroke:#E83834;stroke-width:6;stroke-linecap:round;stroke-linejoin:round;stroke-miterlimit:10;}
	.st5{fill:#7BC67B;}
	.st6{fill:#7BC7FF;}
	.st7{fill:#7C34C1;}
	.st8{fill:#7C8D96;}
	.st9{fill:#AD2707;}
	.st10{fill:#ADB8BC;}
	.st11{fill:#107510;}
	.st12{fill:#7FE5D8;}
	.st13{fill:#AF4AD1;}
	.st14{fill:#E02B7E;}
	.st15{fill:#E04038;}
	.st16{fill:#AFD7DD;}
	.st17{fill:#E0A010;}
	.st18{fill:#E0D5A4;}
	.st19{fill:#12B2B2;}
	.st20{fill:#12D66B;}
	.st21{fill:#E1A9FF;}
	.st22{fill:#1362A8;}
	.st23{fill:#E2378D;}
	.st24{fill:#E29C37;}
	.st25{fill:#E2B90E;}
	.st26{fill:#E2BF91;}
	.st27{fill:#E2CBAA;}
	.st28{fill:#14A594;}
	.st29{fill:#E4E9ED;}
	.st30{fill:#4A5D60;}
	.st31{fill:#E5B076;}
	.st32{fill:#E5B1C4;}
	.st33{fill:#E5E4C3;}
	.st34{fill:#4B6466;}
	.st35{fill:#E6FF2E;}
	.st36{fill:#18AA67;}
	.st37{fill:#E86207;}
	.st38{fill:#E8A113;}
	.st39{fill:#E8B5A6;}
	.st40{fill:#E8E8ED;}
	.st41{fill:#4E5154;}
	.st42{fill:#E9F1F4;}
	.st43{fill:#4F4B48;}
	.st44{fill:#4F74E8;}
	.st45{fill:#808E93;}
	.st46{fill:#80949B;}
	.st47{fill:#80EDAC;}
	.st48{fill:#B122E0;}
	.st49{fill:#B2C4CC;}
	.st50{fill:#83D839;}
	.st51{fill:#B3C6C6;}
	.st52{fill:none;stroke:#33363A;stroke-width:3;stroke-linecap:round;stroke-linejoin:round;stroke-miterlimit:10;}
	.st53{fill:#1A8E1C;}
	.st54{fill:#1A93D6;}
	.st55{fill:#B50B0B;}
	.st56{fill:#1AD88F;}
	.st57{fill:#B5DAF4;}
	.st58{fill:#EA7B1F;}
	.st59{fill:#EA81BD;}
	.st60{fill:#87B8D6;}
	.st61{fill:#87C3F4;}
	.st62{fill:#EAC79D;}
	.st63{fill:#EADF11;}
	.st64{fill:#EAE4C5;}
	.st65{fill:#B78094;}
	.st66{fill:#8844D8;}
	.st67{fill:#EBF4F7;}
	.st68{fill:#893015;}
	.st69{fill:#89410B;}
	.st70{fill:#899BA3;}
	.st71{fill:#EDE3B9;}
	.st72{enable-background:new    ;}
	.st73{fill:#50FF9F;}
	.st74{fill:#EEDCF4;}
	.st75{fill:#EFA37D;}
	.st76{fill:#EFA3CC;}
	.st77{fill:#EFC99A;}
	.st78{fill:#54AF79;}
	.st79{fill:#BA503A;}
	.st80{fill:#BA8663;}
	.st81{fill:#8B4FE0;}
	.st82{fill:#58ED9B;}
	.st83{fill:#BC7DFF;}
	.st84{fill:#8D9AA3;}
	.st85{fill:#BCCAD3;}
	.st86{fill:#8DE4FF;}
	.st87{fill:#20B518;}
	.st88{fill:#BF44F2;}
	.st89{fill:#21CEA1;}
	.st90{fill:#BFDAE0;}
	.st91{fill:#F0FBFC;}
	.st92{fill:#F2D9A7;}
	.st93{fill:#F2EAC9;}
	.st94{fill:#24D1AF;}
	.st95{fill:#25931C;}
	.st96{fill:#F4C4B3;}
	.st97{fill:#F4D3A2;}
	.st98{fill:#F4D647;}
	.st99{fill:#F4D7B8;}
	.st100{fill:#F4EC8E;}
	.st101{fill:#5B524D;}
	.st102{fill:#F77819;}
	.st103{fill:#F79AE1;}
	.st104{fill:#5E707A;}
	.st105{fill:#F93585;}
	.st106{fill:#F95D5D;}
	.st107{fill:#F9C19B;}
	.st108{fill:#F9CB58;}
	.st109{fill:#F9D2B2;}
	.st110{fill:#F9F07D;}
	.st111{fill:#F9F1D2;}
	.st112{fill:#F9F4B7;}
	.st113{fill:#F9F9E4;}
	.st114{fill:#5F1DAA;}
	.st115{fill:#5F9AD6;}
	.st116{fill:#C0C0C4;}
	.st117{fill:#91EA57;}
	.st118{fill:#C12727;}
	.st119{fill:#C191A0;}
	.st120{fill:#923BB7;}
	.st121{fill:#93A0A3;}
	.st122{fill:#93F9EA;}
	.st123{fill:#93FF5A;}
	.st124{fill:#C4833D;}
	.st125{fill:#95A2A5;}
	.st126{fill:#965514;}
	.st127{fill:#96562C;}
	.st128{fill:#2AF42F;}
	.st129{fill:#C5D7DD;}
	.st130{fill:#C68510;}
	.st131{fill:#C6A86D;}
	.st132{fill:#C6BB8D;}
	.st133{fill:#2C9DCE;}
	.st134{fill:#FBFCF2;}
	.st135{fill:#FC70B0;}
	.st136{fill:#FCE6C8;}
	.st137{fill:#FCF7E3;}
	.st138{fill:#C90D6B;}
	.st139{fill:#FDFEFF;}
	.st140{fill:#FDFFDC;}
	.st141{fill:#FF1A1A;}
	.st142{fill:#FF5252;}
	.st143{fill:#FF5B00;}
	.st144{fill:#FF6155;}
	.st145{fill:#FF630D;}
	.st146{fill:#FF6666;}
	.st147{fill:#FF7676;}
	.st148{fill:#FF7900;}
	.st149{fill:#FF860D;}
	.st150{fill:#FF8B00;}
	.st151{fill:#FF8F8F;}
	.st152{fill:#FF900B;}
	.st153{fill:#FF908A;}
	.st154{fill:#FF960B;}
	.st155{fill:#FF9C0D;}
	.st156{fill:#FFA9D4;}
	.st157{fill:#FFAA00;}
	.st158{fill:#FFAD40;}
	.st159{fill:#FFAF10;}
	.st160{fill:#FFB000;}
	.st161{fill:#FFBE08;}
	.st162{fill:#FFBF31;}
	.st163{fill:#FFC200;}
	.st164{fill:#FFCAE8;}
	.st165{fill:#FFCCF5;}
	.st166{fill:#FFD00B;}
	.st167{fill:#FFD039;}
	.st168{fill:#FFD400;}
	.st169{fill:#FFD833;}
	.st170{fill:#FFDB80;}
	.st171{fill:#FFDDD2;}
	.st172{fill:#FFE6D4;}
	.st173{fill:#FFE6EB;}
	.st174{fill:#FFE98D;}
	.st175{fill:#FFECD2;}
	.st176{fill:#FFF1D9;}
	.st177{fill:#FFF24D;}
	.st178{fill:#FFF3C2;}
	.st179{fill:#FFF4C7;}
	.st180{fill:#FFF800;}
	.st181{fill:#FFF80D;}
	.st182{fill:#FFF9DE;}
	.st183{fill:#FFFBD7;}
	.st184{fill:#FFFBEB;}
	.st185{fill:#FFFCC0;}
	.st186{fill:#FFFCDC;}
	.st187{fill:#FFFFFA;}
	.st188{fill:#FFFFFF;}
	.st189{fill:#63797F;}
	.st190{fill:#65E529;}
	.st191{fill:#66310E;}
	.st192{fill:#663C17;}
	.st193{fill:#9A5AE5;}
	.st194{fill:#CA30EF;}
	.st195{fill:#6892FC;}
	.st196{fill:#9CFFC4;}
	.st197{fill:#CC4306;}
	.st198{fill:#CC549E;}
	.st199{fill:#9E3256;}
	.st200{fill:#CDFFBB;}
	.st201{fill:#CE86AF;}
	.st202{fill:#CED9DD;}
	
		.st203{fill:none;stroke:#33363A;stroke-width:3;stroke-linecap:round;stroke-linejoin:round;stroke-miterlimit:10;stroke-dasharray:6;}
	.st204{fill:#CFE1E2;}
	.st205{fill:#33363A;}
	.st206{fill:#34C166;}
	.st207{fill:#364B5B;}
	.st208{fill:#3662CE;}
	.st209{fill:#36C6FF;}
	.st210{fill:#6ADB9A;}
	.st211{fill:#6D5C4D;}
	.st212{fill:#6EBDF9;}
	.st213{fill:#0031FF;}
	.st214{fill:#0062FF;}
	.st215{fill:#0068FF;}
	.st216{fill:#0086FF;}
	.st217{fill:#009BE8;}
	.st218{fill:#00AAFF;}
	.st219{fill:#D271FF;}
	.st220{fill:#D363A9;}
	.st221{fill:#D3964C;}
	.st222{fill:#D3DFE2;}
	.st223{fill:#D3E0E2;}
	.st224{fill:#D3EFF4;}
	.st225{fill:#063B66;}
	.st226{fill:#D60909;}
	.st227{fill:#D61D1D;}
	.st228{fill:#D7F0FF;}
	.st229{fill:#09B285;}
	.st230{fill:#D8D593;}
	.st231{fill:#D8E2EA;}
	.st232{fill:#D8E5EA;}
	.st233{fill:#3E5054;}
	.st234{fill:#D988FF;}
	.st235{fill:#D9E7E8;}
	.st236{fill:#702252;}
	.st237{fill:#70D3E0;}
	.st238{fill:#A02FF2;}
	.st239{fill:#A2F255;}
	.st240{fill:#A35616;}
	.st241{fill:#A3CCCC;}
	.st242{fill:#0A6ADD;}
	.st243{fill:#A5145D;}
	.st244{fill:#A57555;}
	.st245{fill:#77D6FC;}
	.st246{fill:#7815CE;}
	.st247{fill:#A7BBC1;}
	.st248{fill:#DBD279;}
	.st249{fill:#0D5C9E;}
	.st250{fill:#A83C11;}
	.st251{fill:#A8633D;}
	.st252{fill:#A8A3E5;}
	.st253{fill:#DCE6EA;}
	.st254{fill:#DCE7EA;}
	.st255{fill:#A962E8;}
	.st256{fill:#DD2466;}
	.st257{fill:#DDC38A;}
	.st258{fill:#DDD2B1;}
	.st259{fill:#DFE7E8;}
	.st260{fill:#42B1E8;}
	.st261{fill:#436377;}
	.st262{fill:#43B530;}
]]>
</style>
<g>
	<g>
		<g>
			<path class="st147" d="M100.386,129.268L128.358,25.58L77.78,55.594l-0.001,0.002c0.05,7.236-3.61,14.318-10.272,18.271
				s-14.629,3.771-20.957,0.26l-26.658,15.82c15.752,17.014,41.816,21.377,62.545,9.076c0.192-0.115,0.378-0.24,0.569-0.355
				l0.2,1.646L100.386,129.268z"/>
		</g>
		<g>
			<g>
				<g>
					<g>
						<g>
							<path class="st141" d="M67.507,73.867c-6.662,3.953-14.629,3.771-20.957,0.26L23.665,87.709
								c15.467,9.73,35.729,10.691,52.496,0.74c16.77-9.953,25.635-28.193,24.502-46.432L77.779,55.596
								C77.829,62.832,74.169,69.914,67.507,73.867z"/>
						</g>
					</g>
					<g>
						<g>
							<path class="st147" d="M35.901,56.188c-0.049-7.238,3.609-14.318,10.271-18.271s14.633-3.773,20.958-0.262L93.79,21.832
								C78.039,4.82,51.974,0.457,31.246,12.76C10.519,25.061,1.857,50.027,9.243,72.004L35.901,56.188z"/>
						</g>
						<g>
							<path class="st141" d="M46.173,37.916c6.662-3.953,14.633-3.773,20.958-0.262l22.886-13.582
								c-15.47-9.736-35.729-10.693-52.496-0.742C20.75,33.283,11.883,51.523,13.018,69.764l22.884-13.576
								C35.853,48.949,39.511,41.869,46.173,37.916z"/>
						</g>
						<g>
							<path class="st205" d="M9.243,73.504c-0.176,0-0.353-0.031-0.522-0.094c-0.425-0.158-0.755-0.499-0.899-0.929
								C0.099,49.504,9.629,23.845,30.48,11.47c7.979-4.735,17.084-7.238,26.332-7.238c14.442,0,28.321,6.044,38.078,16.581
								c0.308,0.333,0.449,0.786,0.384,1.235c-0.065,0.448-0.329,0.843-0.719,1.074L67.896,38.944
								c-0.459,0.272-1.026,0.28-1.494,0.021c-2.922-1.622-6.229-2.48-9.564-2.48c-3.478,0-6.9,0.941-9.899,2.721
								c-5.93,3.519-9.584,10.021-9.537,16.972c0.004,0.533-0.276,1.027-0.734,1.3L10.009,73.294
								C9.774,73.433,9.51,73.504,9.243,73.504z M56.812,7.231c-8.71,0-17.286,2.357-24.801,6.818
								C12.903,25.39,3.888,48.569,10.105,69.748l24.307-14.421c0.245-7.682,4.401-14.788,10.995-18.701
								c3.462-2.055,7.415-3.141,11.431-3.141c3.553,0,7.079,0.845,10.251,2.449l24.308-14.427
								C82.294,12.413,69.796,7.231,56.812,7.231z"/>
						</g>
					</g>
				</g>
				<g>
					<g>
						<path class="st147" d="M66.265,50.297c3.092,5.207,1.376,11.93-3.832,15.018c-5.203,3.09-11.929,1.377-15.02-3.832
							c-3.088-5.203-1.372-11.932,3.834-15.02C56.452,43.373,63.177,45.092,66.265,50.297z"/>
					</g>
					<g>
						<path class="st141" d="M47.413,61.482c-3.088-5.203-1.372-11.932,3.834-15.02c5.205-3.09,11.93-1.371,15.018,3.834"/>
					</g>
					<g>
						<path class="st205" d="M56.849,68.352c-4.382,0-8.491-2.339-10.726-6.104c-1.698-2.861-2.18-6.214-1.356-9.439
							c0.823-3.227,2.853-5.938,5.715-7.636c1.925-1.143,4.119-1.746,6.347-1.746c4.383,0,8.493,2.339,10.727,6.104
							c1.699,2.862,2.183,6.215,1.359,9.44c-0.822,3.225-2.853,5.936-5.717,7.633C61.273,67.748,59.077,68.352,56.849,68.352z
							 M56.828,46.427c-1.689,0-3.354,0.459-4.815,1.326c-2.174,1.289-3.714,3.348-4.34,5.798c-0.625,2.449-0.259,4.994,1.03,7.166
							c1.696,2.859,4.817,4.635,8.146,4.635c1.689,0,3.355-0.459,4.818-1.327c2.175-1.289,3.716-3.348,4.341-5.795
							c0.624-2.448,0.258-4.993-1.033-7.167C63.278,48.203,60.156,46.427,56.828,46.427z"/>
					</g>
				</g>
			</g>
			<g>
				<g>
					<g>
						<path class="st205" d="M25.545,75.963c-0.512,0-1.011-0.262-1.291-0.734c-0.423-0.713-0.188-1.633,0.524-2.056l13.318-7.904
							c0.713-0.422,1.633-0.188,2.056,0.524s0.188,1.633-0.524,2.056L26.31,75.753C26.069,75.896,25.806,75.963,25.545,75.963z"/>
					</g>
					<g>
						<path class="st205" d="M17.87,80.51c-0.391,0-0.78-0.16-1.061-0.44c-0.279-0.279-0.439-0.659-0.439-1.06
							c0-0.39,0.16-0.78,0.439-1.06c0.561-0.551,1.57-0.551,2.12,0c0.28,0.279,0.44,0.67,0.44,1.06c0,0.4-0.16,0.78-0.431,1.06
							C18.649,80.35,18.27,80.51,17.87,80.51z"/>
					</g>
					<g>
						<path class="st205" d="M10.88,84.66c-0.39,0-0.78-0.16-1.061-0.44c-0.279-0.28-0.439-0.67-0.439-1.06
							c0-0.391,0.16-0.78,0.439-1.061c0.561-0.56,1.561-0.56,2.12,0c0.28,0.28,0.44,0.67,0.44,1.061c0,0.39-0.16,0.779-0.44,1.06
							C11.66,84.5,11.27,84.66,10.88,84.66z"/>
					</g>
				</g>
				<g>
					<g>
						<path class="st205" d="M74.818,46.721c-0.512,0-1.011-0.263-1.291-0.734c-0.423-0.713-0.188-1.633,0.524-2.056l13.318-7.9
							c0.712-0.421,1.633-0.188,2.056,0.524c0.423,0.713,0.188,1.633-0.524,2.056l-13.318,7.9
							C75.343,46.653,75.079,46.721,74.818,46.721z"/>
					</g>
					<g>
						<path class="st205" d="M95.81,34.26c-0.399,0-0.79-0.15-1.069-0.43c-0.271-0.28-0.431-0.67-0.431-1.061
							c0-0.399,0.16-0.79,0.431-1.069c0.56-0.551,1.569-0.551,2.13,0c0.279,0.279,0.439,0.67,0.439,1.069
							c0,0.391-0.16,0.78-0.439,1.061C96.59,34.109,96.2,34.26,95.81,34.26z"/>
					</g>
					<g>
						<path class="st205" d="M102.797,30.119c-0.512,0-1.011-0.262-1.291-0.734c-0.423-0.713-0.188-1.633,0.524-2.056l20.238-12.012
							c0.712-0.422,1.633-0.188,2.056,0.524s0.188,1.633-0.524,2.056l-20.238,12.012C103.321,30.052,103.058,30.119,102.797,30.119z
							"/>
					</g>
				</g>
			</g>
		</g>
		<g>
			<path class="st205" d="M100.386,130.768c-0.524,0-1.018-0.275-1.29-0.734l-17.18-28.953c-0.004-0.007-0.009-0.015-0.013-0.021
				c-7.663,4.252-16.283,6.491-25.032,6.491c-14.442,0-28.322-6.044-38.08-16.583c-0.308-0.333-0.449-0.787-0.384-1.235
				s0.329-0.843,0.719-1.074l26.658-15.82c0.458-0.271,1.027-0.28,1.493-0.021c2.926,1.623,6.234,2.481,9.569,2.481
				c3.476-0.001,6.897-0.94,9.895-2.72c5.932-3.52,9.586-10.022,9.538-16.971c-0.002-0.238,0.054-0.474,0.161-0.687
				c0.129-0.255,0.328-0.471,0.574-0.616l50.578-30.014c0.525-0.312,1.187-0.274,1.673,0.096c0.486,0.369,0.7,0.996,0.541,1.585
				l-27.973,103.688c-0.157,0.582-0.647,1.014-1.245,1.096C100.521,130.763,100.453,130.768,100.386,130.768z M84.657,99.82
				l15.206,25.627l26.085-96.692l-46.68,27.7c-0.243,7.681-4.4,14.788-10.996,18.702c-3.461,2.054-7.412,3.139-11.426,3.14
				c-3.554,0-7.08-0.845-10.255-2.45L22.285,90.271c9.103,9.096,21.603,14.278,34.586,14.278c8.71,0,17.285-2.356,24.8-6.816
				l0.562-0.351c0.436-0.262,0.973-0.286,1.432-0.062c0.456,0.223,0.77,0.662,0.831,1.167L84.657,99.82z"/>
		</g>
	</g>
	<g>
		<path class="st205" d="M95.806,89.812c-5.323,0-9.653-4.331-9.653-9.654s4.33-9.654,9.653-9.654s9.654,4.331,9.654,9.654
			S101.129,89.812,95.806,89.812z M95.806,73.504c-3.669,0-6.653,2.985-6.653,6.654s2.984,6.654,6.653,6.654
			s6.654-2.985,6.654-6.654S99.475,73.504,95.806,73.504z"/>
	</g>
</g>
</svg>
